<svg width="16" height="16" viewBox="0 0 16 16" fill="none" xmlns="http://www.w3.org/2000/svg">
<path d="M12.9837 0C12.9837 0 13.1452 1.49964 13.7703 2.12782C14.3954 2.75293 15.8981 2.91438 15.8981 2.91438C15.8981 2.91438 14.3985 3.07584 13.7703 3.70095C13.1452 4.32606 12.9837 5.82877 12.9837 5.82877C12.9837 5.82877 12.8223 4.32913 12.1972 3.70095C11.572 3.07584 10.0693 2.91438 10.0693 2.91438C10.0693 2.91438 11.569 2.75293 12.1972 2.12782C12.8223 1.50271 12.9837 0 12.9837 0Z" fill="#0051BC"/>
<path d="M5.96127 3.97266C5.96127 3.97266 6.28935 7.04336 7.57162 8.32357C8.8539 9.60584 11.9225 9.93392 11.9225 9.93392C11.9225 9.93392 8.85183 10.262 7.57162 11.5443C6.28935 12.8266 5.96127 15.8952 5.96127 15.8952C5.96127 15.8952 5.63319 12.8245 4.35091 11.5443C3.06864 10.262 0 9.93392 0 9.93392C0 9.93392 3.0707 9.60584 4.35091 8.32357C5.63319 7.04129 5.96127 3.97266 5.96127 3.97266Z" fill="#0051BC"/>
<path d="M14.3071 13.9101C14.3071 14.7929 12.9824 14.7929 12.9824 13.9101C12.9824 13.0273 14.3071 13.0273 14.3071 13.9101Z" fill="#0051BC"/>
<path d="M2.64992 2.51756C2.64992 3.40036 1.3252 3.40036 1.3252 2.51756C1.3252 1.63477 2.64992 1.63477 2.64992 2.51756Z" fill="#0051BC"/>
</svg>
